<svg width="237.51494140625px" height="78.82003173828124px" xmlns="http://www.w3.org/2000/svg" viewBox="131.242529296875 35.58998413085938 237.51494140625 78.82003173828124" style="background: none;" preserveAspectRatio="xMidYMid"><defs><filter id="editing-hole" x="-100%" y="-100%" width="300%" height="300%"><feFlood flood-color="#ffffff" result="black"></feFlood><feMorphology operator="dilate" radius="2" in="SourceGraphic" result="erode"></feMorphology><feGaussianBlur in="erode" stdDeviation="4" result="blur"></feGaussianBlur><feOffset in="blur" dx="2" dy="2" result="offset"></feOffset><feComposite operator="atop" in="offset" in2="black" result="merge"></feComposite><feComposite operator="in" in="merge" in2="SourceGraphic" result="inner-shadow"></feComposite></filter></defs><g filter="url(#editing-hole)"><g transform="translate(170.32062470912933, 91.02999877929688)"><path d="M20.88-10.95L20.88-10.95L20.88-10.95Q20.77-10.47 20.72-9.96L20.72-9.96L20.72-9.96Q20.67-9.45 20.66-8.86L20.66-8.86L20.66-8.86Q20.64-8.26 20.62-7.51L20.62-7.51L20.62-7.51Q20.60-6.77 20.60-5.81L20.60-5.81L20.60-5.81Q20.60-3.84 20.62-2.55L20.62-2.55L20.62-2.55Q20.64-1.26 20.71 0L20.71 0L19.14 0.41L17.92-1.63L17.92-1.63Q16.56-0.75 14.62-0.17L14.62-0.17L14.62-0.17Q12.68 0.41 10.71 0.41L10.71 0.41L10.71 0.41Q8.91 0.41 7.23-0.03L7.23-0.03L7.23-0.03Q5.54-0.48 4.25-1.72L4.25-1.72L4.25-1.72Q2.96-2.96 2.18-5.17L2.18-5.17L2.18-5.17Q1.39-7.38 1.39-10.91L1.39-10.91L1.39-10.91Q1.39-17.65 4.22-20.93L4.22-20.93L4.22-20.93Q7.04-24.21 12.31-24.21L12.31-24.21L12.31-24.21Q13.12-24.21 13.80-24.14L13.80-24.14L13.80-24.14Q14.48-24.07 15.06-24.00L15.06-24.00L15.06-24.00Q15.64-23.94 16.18-23.87L16.18-23.87L16.18-23.87Q16.73-23.80 17.27-23.80L17.27-23.80L17.27-23.80Q17.82-23.80 18.39-23.89L18.39-23.89L18.39-23.89Q18.97-23.97 19.65-24.17L19.65-24.17L20.03-16.35L16.25-15.91L16.25-15.91Q16.29-16.15 16.29-16.37L16.29-16.37L16.29-16.37Q16.29-16.59 16.29-16.83L16.29-16.83L16.29-16.83Q16.29-17.71 16.12-18.53L16.12-18.53L16.12-18.53Q15.95-19.35 15.50-19.98L15.50-19.98L15.50-19.98Q15.06-20.60 14.28-20.98L14.28-20.98L14.28-20.98Q13.50-21.35 12.31-21.35L12.31-21.35L12.31-21.35Q5.85-21.35 5.85-11.87L5.85-11.87L5.85-11.87Q5.85-9.59 6.24-7.99L6.24-7.99L6.24-7.99Q6.63-6.39 7.40-5.37L7.40-5.37L7.40-5.37Q8.16-4.35 9.30-3.88L9.30-3.88L9.30-3.88Q10.44-3.40 11.90-3.40L11.90-3.40L11.90-3.40Q13.12-3.40 14.23-3.74L14.23-3.74L14.23-3.74Q15.33-4.08 16.42-4.66L16.42-4.66L16.42-8.06L12.27-7.85L11.97-10.95L20.88-10.95ZM24.41-17L29.07-17L29.07-17Q28.97-16.22 28.92-15.50L28.92-15.50L28.92-15.50Q28.87-14.79 28.85-13.92L28.85-13.92L28.85-13.92Q28.83-13.06 28.82-11.92L28.82-11.92L28.82-11.92Q28.80-10.78 28.80-9.21L28.80-9.21L28.80-9.21Q28.80-7.65 28.80-6.39L28.80-6.39L28.80-6.39Q28.80-5.13 28.82-4.05L28.82-4.05L28.82-4.05Q28.83-2.96 28.85-1.99L28.85-1.99L28.85-1.99Q28.87-1.02 28.90 0L28.90 0L24.31 0L24.31 0Q24.34-1.26 24.39-2.21L24.39-2.21L24.39-2.21Q24.45-3.16 24.48-4.23L24.48-4.23L24.48-4.23Q24.51-5.30 24.55-6.65L24.55-6.65L24.55-6.65Q24.58-7.99 24.58-10.00L24.58-10.00L24.58-10.00Q24.58-11.83 24.55-13.45L24.55-13.45L24.55-13.45Q24.51-15.06 24.41-17L24.41-17ZM24.31-22.54L24.31-22.54L24.31-22.54Q24.31-23.49 24.97-24.19L24.97-24.19L24.97-24.19Q25.64-24.89 26.79-24.89L26.79-24.89L26.79-24.89Q27.78-24.89 28.51-24.31L28.51-24.31L28.51-24.31Q29.24-23.73 29.24-22.75L29.24-22.75L29.24-22.75Q29.24-21.79 28.54-21.15L28.54-21.15L28.54-21.15Q27.85-20.50 26.69-20.50L26.69-20.50L26.69-20.50Q25.70-20.50 25.01-21.03L25.01-21.03L25.01-21.03Q24.31-21.56 24.31-22.54ZM43.38-17L47.77-17.41L47.77-17.41Q46.48-12.58 44.95-8.38L44.95-8.38L44.95-8.38Q43.42-4.18 41.55 0L41.55 0L37.43 0.41L37.43 0.41Q35.67-3.77 34.22-7.97L34.22-7.97L34.22-7.97Q32.78-12.17 31.55-17L31.55-17L35.94-17.41L35.94-17.41Q36.65-13.91 37.52-10.51L37.52-10.51L37.52-10.51Q38.39-7.11 39.47-3.84L39.47-3.84L39.47-3.84Q40.66-7.07 41.63-10.29L41.63-10.29L41.63-10.29Q42.60-13.50 43.38-17L43.38-17ZM50.32-17L54.98-17L54.98-17Q54.88-16.22 54.83-15.50L54.83-15.50L54.83-15.50Q54.77-14.79 54.76-13.92L54.76-13.92L54.76-13.92Q54.74-13.06 54.72-11.92L54.72-11.92L54.72-11.92Q54.71-10.78 54.71-9.21L54.71-9.21L54.71-9.21Q54.71-7.65 54.71-6.39L54.71-6.39L54.71-6.39Q54.71-5.13 54.72-4.05L54.72-4.05L54.72-4.05Q54.74-2.96 54.76-1.99L54.76-1.99L54.76-1.99Q54.77-1.02 54.81 0L54.81 0L50.22 0L50.22 0Q50.25-1.26 50.30-2.21L50.30-2.21L50.30-2.21Q50.35-3.16 50.39-4.23L50.39-4.23L50.39-4.23Q50.42-5.30 50.46-6.65L50.46-6.65L50.46-6.65Q50.49-7.99 50.49-10.00L50.49-10.00L50.49-10.00Q50.49-11.83 50.46-13.45L50.46-13.45L50.46-13.45Q50.42-15.06 50.32-17L50.32-17ZM50.22-22.54L50.22-22.54L50.22-22.54Q50.22-23.49 50.88-24.19L50.88-24.19L50.88-24.19Q51.54-24.89 52.70-24.89L52.70-24.89L52.70-24.89Q53.69-24.89 54.42-24.31L54.42-24.31L54.42-24.31Q55.15-23.73 55.15-22.75L55.15-22.75L55.15-22.75Q55.15-21.79 54.45-21.15L54.45-21.15L54.45-21.15Q53.75-20.50 52.60-20.50L52.60-20.50L52.60-20.50Q51.61-20.50 50.92-21.03L50.92-21.03L50.92-21.03Q50.22-21.56 50.22-22.54ZM57.60-14.65L61.57-17.41L61.57-17.41Q62.25-16.42 62.66-15.67L62.66-15.67L62.66-15.67Q63.07-14.93 63.27-14.14L63.27-14.14L63.27-14.14Q63.78-14.69 64.43-15.28L64.43-15.28L64.43-15.28Q65.08-15.88 65.81-16.34L65.81-16.34L65.81-16.34Q66.54-16.80 67.39-17.10L67.39-17.10L67.39-17.10Q68.24-17.41 69.16-17.41L69.16-17.41L69.16-17.41Q70.01-17.41 70.81-17.10L70.81-17.10L70.81-17.10Q71.60-16.80 72.22-16.08L72.22-16.08L72.22-16.08Q72.83-15.37 73.20-14.14L73.20-14.14L73.20-14.14Q73.58-12.92 73.58-11.08L73.58-11.08L73.58-11.08Q73.58-10.61 73.56-9.69L73.56-9.69L73.56-9.69Q73.54-8.77 73.51-7.74L73.51-7.74L73.51-7.74Q73.47-6.70 73.46-5.75L73.46-5.75L73.46-5.75Q73.44-4.79 73.44-4.28L73.44-4.28L73.44-4.28Q73.44-3.16 73.59-2.13L73.59-2.13L73.59-2.13Q73.75-1.09 74.12-0.41L74.12-0.41L69.39 0.41L69.39 0.41Q69.16-0.37 69.11-1.29L69.11-1.29L69.11-1.29Q69.05-2.21 69.05-2.89L69.05-2.89L69.05-2.89Q69.05-3.84 69.11-4.85L69.11-4.85L69.11-4.85Q69.16-5.85 69.21-6.78L69.21-6.78L69.21-6.78Q69.26-7.72 69.31-8.55L69.31-8.55L69.31-8.55Q69.36-9.38 69.36-10.00L69.36-10.00L69.36-10.00Q69.36-12.00 68.68-12.75L68.68-12.75L68.68-12.75Q68.00-13.50 66.81-13.50L66.81-13.50L66.81-13.50Q65.82-13.50 64.99-13.19L64.99-13.19L64.99-13.19Q64.16-12.89 63.51-12.44L63.51-12.44L63.51-12.44Q63.58-11.80 63.58-11.02L63.58-11.02L63.58-11.02Q63.58-10.23 63.58-9.21L63.58-9.21L63.58-9.21Q63.58-7.65 63.58-6.39L63.58-6.39L63.58-6.39Q63.58-5.13 63.60-4.05L63.60-4.05L63.60-4.05Q63.61-2.96 63.63-1.99L63.63-1.99L63.63-1.99Q63.65-1.02 63.68 0L63.68 0L59.09 0L59.09 0Q59.13-0.82 59.16-1.84L59.16-1.84L59.16-1.84Q59.19-2.86 59.25-4.00L59.25-4.00L59.25-4.00Q59.30-5.13 59.33-6.34L59.33-6.34L59.33-6.34Q59.36-7.55 59.36-8.67L59.36-8.67L59.36-8.67Q59.36-10.00 59.30-10.83L59.30-10.83L59.30-10.83Q59.23-11.66 59.02-12.29L59.02-12.29L59.02-12.29Q58.82-12.92 58.48-13.45L58.48-13.45L58.48-13.45Q58.14-13.97 57.60-14.65L57.60-14.65ZM92.04-0.14L92.04-0.14L92.04-0.14Q92.04 1.46 91.15 2.81L91.15 2.81L91.15 2.81Q90.27 4.15 88.76 5.12L88.76 5.12L88.76 5.12Q87.24 6.09 85.29 6.63L85.29 6.63L85.29 6.63Q83.33 7.17 81.19 7.17L81.19 7.17L81.19 7.17Q79.93 7.17 78.86 6.97L78.86 6.97L78.86 6.97Q77.79 6.77 77.03 6.32L77.03 6.32L77.03 6.32Q76.26 5.88 75.82 5.20L75.82 5.20L75.82 5.20Q75.38 4.52 75.38 3.60L75.38 3.60L75.38 3.60Q75.38 2.31 76.18 1.43L76.18 1.43L76.18 1.43Q76.98 0.54 78.47-0.34L78.47-0.34L78.47-0.34Q77.69-0.61 77.20-1.16L77.20-1.16L77.20-1.16Q76.70-1.70 76.70-2.65L76.70-2.65L76.70-2.65Q76.70-3.30 76.94-3.88L76.94-3.88L76.94-3.88Q77.18-4.45 77.59-4.93L77.59-4.93L77.59-4.93Q78.00-5.41 78.51-5.81L78.51-5.81L78.51-5.81Q79.02-6.22 79.56-6.56L79.56-6.56L79.56-6.56Q78.37-7.31 77.71-8.47L77.71-8.47L77.71-8.47Q77.04-9.62 77.04-11.12L77.04-11.12L77.04-11.12Q77.04-12.44 77.59-13.60L77.59-13.60L77.59-13.60Q78.13-14.76 79.10-15.59L79.10-15.59L79.10-15.59Q80.07-16.42 81.43-16.92L81.43-16.92L81.43-16.92Q82.79-17.41 84.39-17.41L84.39-17.41L84.39-17.41Q85.03-17.41 85.61-17.32L85.61-17.32L85.61-17.32Q86.19-17.24 86.73-17.07L86.73-17.07L86.73-17.07Q86.94-17.44 87.41-18.04L87.41-18.04L87.41-18.04Q87.89-18.63 88.55-19.21L88.55-19.21L88.55-19.21Q89.22-19.79 90.07-20.25L90.07-20.25L90.07-20.25Q90.92-20.71 91.83-20.81L91.83-20.81L92.00-16.90L92.00-16.90Q91.05-16.90 90.13-16.75L90.13-16.75L90.13-16.75Q89.22-16.59 88.47-16.32L88.47-16.32L88.47-16.32Q89.62-15.57 90.25-14.42L90.25-14.42L90.25-14.42Q90.88-13.26 90.88-11.83L90.88-11.83L90.88-11.83Q90.88-10.47 90.32-9.32L90.32-9.32L90.32-9.32Q89.76-8.16 88.79-7.33L88.79-7.33L88.79-7.33Q87.82-6.49 86.48-6.04L86.48-6.04L86.48-6.04Q85.14-5.58 83.57-5.58L83.57-5.58L83.57-5.58Q82.21-5.58 80.99-5.95L80.99-5.95L80.99-5.95Q80.58-5.37 80.58-4.73L80.58-4.73L80.58-4.73Q80.58-3.81 81.33-3.55L81.33-3.55L81.33-3.55Q82.08-3.30 83.16-3.30L83.16-3.30L83.16-3.30Q83.78-3.30 84.47-3.33L84.47-3.33L84.47-3.33Q85.17-3.37 85.85-3.42L85.85-3.42L85.85-3.42Q86.53-3.47 87.14-3.50L87.14-3.50L87.14-3.50Q87.75-3.54 88.16-3.54L88.16-3.54L88.16-3.54Q90.03-3.54 91.04-2.69L91.04-2.69L91.04-2.69Q92.04-1.84 92.04-0.14ZM84.05-14.69L84.05-14.69L84.05-14.69Q82.48-14.69 81.65-13.74L81.65-13.74L81.65-13.74Q80.82-12.78 80.82-11.36L80.82-11.36L80.82-11.36Q80.82-9.86 81.67-9.04L81.67-9.04L81.67-9.04Q82.52-8.23 83.88-8.23L83.88-8.23L83.88-8.23Q84.73-8.23 85.34-8.53L85.34-8.53L85.34-8.53Q85.95-8.84 86.36-9.33L86.36-9.33L86.36-9.33Q86.77-9.83 86.96-10.42L86.96-10.42L86.96-10.42Q87.14-11.02 87.14-11.63L87.14-11.63L87.14-11.63Q87.14-12.92 86.36-13.80L86.36-13.80L86.36-13.80Q85.58-14.69 84.05-14.69ZM88.26 1.63L88.26 1.63L88.26 1.63Q88.26 0.85 87.48 0.54L87.48 0.54L87.48 0.54Q86.70 0.24 85.49 0.17L85.49 0.17L85.49 0.17Q84.29 0.10 82.86 0.12L82.86 0.12L82.86 0.12Q81.43 0.14 80.17 0L80.17 0L80.17 0Q79.08 1.05 79.08 2.01L79.08 2.01L79.08 2.01Q79.08 2.79 80.10 3.33L80.10 3.33L80.10 3.33Q81.12 3.88 83.13 3.88L83.13 3.88L83.13 3.88Q84.15 3.88 85.09 3.72L85.09 3.72L85.09 3.72Q86.02 3.57 86.73 3.26L86.73 3.26L86.73 3.26Q87.45 2.96 87.86 2.55L87.86 2.55L87.86 2.55Q88.26 2.14 88.26 1.63ZM117.40-23.80L117.40-20.47L110.67-20.47L110.67-20.47Q110.60-18.87 110.60-16.88L110.60-16.88L110.60-16.88Q110.60-14.89 110.60-12.10L110.60-12.10L110.60-12.10Q110.60-10.06 110.60-8.42L110.60-8.42L110.60-8.42Q110.60-6.77 110.62-5.34L110.62-5.34L110.62-5.34Q110.64-3.91 110.65-2.62L110.65-2.62L110.65-2.62Q110.67-1.33 110.70 0L110.70 0L105.91 0L105.91 0Q105.94-1.63 106.00-2.87L106.00-2.87L106.00-2.87Q106.05-4.11 106.08-5.46L106.08-5.46L106.08-5.46Q106.11-6.80 106.15-8.53L106.15-8.53L106.15-8.53Q106.18-10.27 106.18-12.89L106.18-12.89L106.18-12.89Q106.18-14.79 106.18-16.66L106.18-16.66L106.18-16.66Q106.18-18.53 106.11-20.47L106.11-20.47L99.38-20.47L99.38-23.80L117.40-23.80ZM115.91-14.86L119.88-17.61L119.88-17.61Q120.60-16.49 121.01-15.66L121.01-15.66L121.01-15.66Q121.41-14.82 121.58-13.91L121.58-13.91L121.58-13.91Q121.92-14.42 122.43-15.01L122.43-15.01L122.43-15.01Q122.94-15.61 123.59-16.13L123.59-16.13L123.59-16.13Q124.24-16.66 125.02-17.07L125.02-17.07L125.02-17.07Q125.80-17.48 126.68-17.61L126.68-17.61L126.99-12.78L126.99-12.78Q125.32-12.78 123.90-12.50L123.90-12.50L123.90-12.50Q122.47-12.21 121.86-11.53L121.86-11.53L121.86-11.53Q121.89-10.88 121.89-10.12L121.89-10.12L121.89-10.12Q121.89-9.35 121.89-8.40L121.89-8.40L121.89-8.40Q121.89-7.31 121.92-6.07L121.92-6.07L121.92-6.07Q121.96-4.83 122.01-3.69L122.01-3.69L122.01-3.69Q122.06-2.55 122.13-1.56L122.13-1.56L122.13-1.56Q122.20-0.58 122.26 0L122.26 0L117.47 0L117.47 0Q117.50-0.71 117.54-1.67L117.54-1.67L117.54-1.67Q117.57-2.62 117.61-3.64L117.61-3.64L117.61-3.64Q117.64-4.66 117.66-5.73L117.66-5.73L117.66-5.73Q117.67-6.80 117.67-7.79L117.67-7.79L117.67-7.79Q117.67-9.35 117.61-10.35L117.61-10.35L117.61-10.35Q117.54-11.36 117.33-12.09L117.33-12.09L117.33-12.09Q117.13-12.82 116.79-13.43L116.79-13.43L116.79-13.43Q116.45-14.04 115.91-14.86L115.91-14.86ZM141.61-7.68L132.97-7.68L132.97-7.68Q133.14-5.10 134.03-4.06L134.03-4.06L134.03-4.06Q134.91-3.03 136.71-3.03L136.71-3.03L136.71-3.03Q138.07-3.03 139.28-3.43L139.28-3.43L139.28-3.43Q140.49-3.84 141.27-4.18L141.27-4.18L141.27-1.36L141.27-1.36Q140.18-0.37 138.55 0.02L138.55 0.02L138.55 0.02Q136.92 0.41 135.39 0.41L135.39 0.41L135.39 0.41Q134.13 0.41 132.91 0.10L132.91 0.10L132.91 0.10Q131.68-0.20 130.71-1.07L130.71-1.07L130.71-1.07Q129.74-1.94 129.15-3.49L129.15-3.49L129.15-3.49Q128.55-5.03 128.55-7.55L128.55-7.55L128.55-7.55Q128.55-10.03 129.17-11.88L129.17-11.88L129.17-11.88Q129.78-13.74 130.85-14.96L130.85-14.96L130.85-14.96Q131.92-16.18 133.37-16.80L133.37-16.80L133.37-16.80Q134.81-17.41 136.51-17.41L136.51-17.41L136.51-17.41Q138.24-17.41 139.35-16.81L139.35-16.81L139.35-16.81Q140.45-16.22 141.08-15.30L141.08-15.30L141.08-15.30Q141.71-14.38 141.93-13.26L141.93-13.26L141.93-13.26Q142.15-12.14 142.15-11.08L142.15-11.08L142.15-11.08Q142.15-10.00 142.00-9.11L142.00-9.11L142.00-9.11Q141.85-8.23 141.61-7.68L141.61-7.68ZM135.90-14.93L135.90-14.93L135.90-14.93Q134.57-14.93 133.84-13.79L133.84-13.79L133.84-13.79Q133.11-12.65 132.97-10.20L132.97-10.20L138.58-10.20L138.58-10.20Q138.58-10.34 138.60-10.54L138.60-10.54L138.60-10.54Q138.62-10.74 138.62-10.91L138.62-10.91L138.62-10.91Q138.62-11.46 138.52-12.16L138.52-12.16L138.52-12.16Q138.41-12.85 138.11-13.46L138.11-13.46L138.11-13.46Q137.80-14.08 137.28-14.50L137.28-14.50L137.28-14.50Q136.75-14.93 135.90-14.93ZM157.45-7.68L148.82-7.68L148.82-7.68Q148.99-5.10 149.87-4.06L149.87-4.06L149.87-4.06Q150.76-3.03 152.56-3.03L152.56-3.03L152.56-3.03Q153.92-3.03 155.13-3.43L155.13-3.43L155.13-3.43Q156.33-3.84 157.11-4.18L157.11-4.18L157.11-1.36L157.11-1.36Q156.03-0.37 154.39 0.02L154.39 0.02L154.39 0.02Q152.76 0.41 151.23 0.41L151.23 0.41L151.23 0.41Q149.97 0.41 148.75 0.10L148.75 0.10L148.75 0.10Q147.53-0.20 146.56-1.07L146.56-1.07L146.56-1.07Q145.59-1.94 144.99-3.49L144.99-3.49L144.99-3.49Q144.40-5.03 144.40-7.55L144.40-7.55L144.40-7.55Q144.40-10.03 145.01-11.88L145.01-11.88L145.01-11.88Q145.62-13.74 146.69-14.96L146.69-14.96L146.69-14.96Q147.76-16.18 149.21-16.80L149.21-16.80L149.21-16.80Q150.65-17.41 152.35-17.41L152.35-17.41L152.35-17.41Q154.09-17.41 155.19-16.81L155.19-16.81L155.19-16.81Q156.30-16.22 156.93-15.30L156.93-15.30L156.93-15.30Q157.56-14.38 157.78-13.26L157.78-13.26L157.78-13.26Q158.00-12.14 158.00-11.08L158.00-11.08L158.00-11.08Q158.00-10.00 157.85-9.11L157.85-9.11L157.85-9.11Q157.69-8.23 157.45-7.68L157.45-7.68ZM151.74-14.93L151.74-14.93L151.74-14.93Q150.42-14.93 149.69-13.79L149.69-13.79L149.69-13.79Q148.95-12.65 148.82-10.20L148.82-10.20L154.43-10.20L154.43-10.20Q154.43-10.34 154.45-10.54L154.45-10.54L154.45-10.54Q154.46-10.74 154.46-10.91L154.46-10.91L154.46-10.91Q154.46-11.46 154.36-12.16L154.36-12.16L154.36-12.16Q154.26-12.85 153.95-13.46L153.95-13.46L153.95-13.46Q153.65-14.08 153.12-14.50L153.12-14.50L153.12-14.50Q152.59-14.93 151.74-14.93Z" fill="#ffffff"></path></g></g><style>text {
  font-size: 64px;
  font-family: Arial Black;
  dominant-baseline: central;
  text-anchor: middle;
}</style></svg>